<?xml version="1.0" encoding="UTF-8" standalone="no"?><svg fill-opacity="1" color-rendering="auto" color-interpolation="auto" stroke="black" text-rendering="auto" stroke-linecap="square" width="284" stroke-miterlimit="10" stroke-opacity="1" shape-rendering="auto" fill="black" stroke-dasharray="none" font-weight="normal" stroke-width="1" height="20" font-family="'Dialog'" font-style="normal" stroke-linejoin="miter" font-size="12" stroke-dashoffset="0" image-rendering="auto" xmlns="http://www.w3.org/2000/svg"><!--Converted from MathML using JEuclid--><defs id="genericDefs"/><g><g text-rendering="optimizeLegibility" transform="translate(-0.2969,11.6034) matrix(1,0,0,1.1315,0,0)" color-interpolation="linearRGB" color-rendering="optimizeQuality" image-rendering="optimizeQuality"><path d="M9.2656 3.0156 L0.2969 3.0156 L0.2969 2.7656 L4.875 -3.3906 L0.2969 -9.4531 L0.2969 -9.7031 L9.0312 -9.7031 L9.2188 -7.4062 L8.9375 -7.4062 Q8.8281 -8.3438 8.4062 -8.75 Q7.9844 -9.1562 7.2344 -9.1562 L2.1875 -9.1562 L6.0156 -3.9844 L1.7188 1.8125 L7.3125 1.8125 Q7.7969 1.8125 8.3594 1.625 Q8.75 1.5 9.0078 1.1719 Q9.2656 0.8438 9.4375 0.125 L9.7031 0.1875 L9.2656 3.0156 Z" stroke="none"/></g><g text-rendering="optimizeLegibility" transform="translate(9.4062,17.1719)" color-interpolation="linearRGB" color-rendering="optimizeQuality" image-rendering="optimizeQuality"><path d="M2.6719 -6.25 L1.1719 -1.0156 Q1.0625 -0.625 1.0625 -0.5469 Q1.0625 -0.4688 1.1016 -0.4297 Q1.1406 -0.3906 1.2031 -0.3906 Q1.2969 -0.3906 1.3906 -0.4688 Q1.625 -0.6406 1.875 -1.0156 L2 -0.8906 Q1.5781 -0.2969 1.2344 -0.0625 Q0.9688 0.1094 0.7344 0.1094 Q0.5781 0.1094 0.4609 -0.0078 Q0.3438 -0.125 0.3438 -0.2656 Q0.3438 -0.4375 0.4844 -0.9219 L1.6719 -5.0469 Q1.8281 -5.5469 1.8281 -5.625 Q1.8281 -5.7344 1.7422 -5.7969 Q1.6562 -5.8594 1.4844 -5.8594 Q1.375 -5.8594 1.1719 -5.8438 L1.1719 -6 L2.6719 -6.25 Z" stroke="none"/></g><g text-rendering="optimizeLegibility" transform="translate(11.1094,17.1719)" color-interpolation="linearRGB" color-rendering="optimizeQuality" image-rendering="optimizeQuality"><path d="M6.1719 -0.4375 L6.1719 0 L3.5781 0 Q2.5 0 1.7344 -0.7578 Q0.9688 -1.5156 0.9688 -2.6094 Q0.9688 -3.6875 1.7344 -4.4453 Q2.5 -5.2031 3.5781 -5.2031 L6.1719 -5.2031 L6.1719 -4.7656 L3.5781 -4.7656 Q2.75 -4.7656 2.1172 -4.1953 Q1.4844 -3.625 1.4219 -2.8281 L6.1719 -2.8281 L6.1719 -2.3906 L1.4219 -2.3906 Q1.4844 -1.5781 2.1172 -1.0078 Q2.75 -0.4375 3.5781 -0.4375 L6.1719 -0.4375 Z" stroke="none"/></g><g text-rendering="optimizeLegibility" transform="translate(17.5781,17.1719)" color-interpolation="linearRGB" color-rendering="optimizeQuality" image-rendering="optimizeQuality"><path d="M4.125 0 L-0.2969 0 L-0.2344 -0.1562 Q0.125 -0.1719 0.2344 -0.2188 Q0.4219 -0.2969 0.5156 -0.4219 Q0.6562 -0.625 0.7969 -1.1562 L1.8594 -4.7812 Q1.9844 -5.2344 1.9844 -5.4375 Q1.9844 -5.6094 1.8672 -5.7031 Q1.75 -5.7969 1.4062 -5.7969 Q1.3438 -5.7969 1.2969 -5.7969 L1.3438 -5.9531 L3.7812 -5.9531 L3.7344 -5.7969 Q3.3281 -5.7969 3.1562 -5.7188 Q2.9844 -5.6406 2.875 -5.4531 Q2.7969 -5.3438 2.6094 -4.7188 L1.5781 -1.1562 Q1.4688 -0.75 1.4688 -0.5938 Q1.4688 -0.4844 1.5781 -0.3906 Q1.6562 -0.3281 1.9219 -0.3281 L2.5 -0.3281 Q3.125 -0.3281 3.5 -0.4844 Q3.7656 -0.6094 4 -0.8438 Q4.125 -0.9688 4.4375 -1.5 L4.5469 -1.6875 L4.7031 -1.6875 L4.125 0 ZM7.0156 -5.7188 Q7.2031 -5.7188 7.3281 -5.5938 Q7.4531 -5.4688 7.4531 -5.2812 Q7.4531 -5.1094 7.3203 -4.9766 Q7.1875 -4.8438 7.0156 -4.8438 Q6.8281 -4.8438 6.7031 -4.9766 Q6.5781 -5.1094 6.5781 -5.2812 Q6.5781 -5.4688 6.7031 -5.5938 Q6.8281 -5.7188 7.0156 -5.7188 ZM7.0625 -3.9844 L6.2031 -0.8906 Q6.1094 -0.5781 6.1094 -0.5156 Q6.1094 -0.4531 6.1562 -0.4062 Q6.2031 -0.3594 6.25 -0.3594 Q6.3125 -0.3594 6.4062 -0.4375 Q6.6562 -0.6406 6.9219 -1 L7.0625 -0.8906 Q6.7656 -0.4375 6.3594 -0.125 Q6.0625 0.1094 5.7969 0.1094 Q5.6094 0.1094 5.5 0 Q5.3906 -0.1094 5.3906 -0.2656 Q5.3906 -0.4375 5.5 -0.8125 L6.0625 -2.7812 Q6.2031 -3.2656 6.2031 -3.3906 Q6.2031 -3.4844 6.1406 -3.5469 Q6.0781 -3.6094 5.9531 -3.6094 Q5.8594 -3.6094 5.5469 -3.5625 L5.5469 -3.7344 L7.0625 -3.9844 ZM12.6875 -3.7031 L12.5625 -3.25 L11.8281 -3.25 Q11.9062 -3.0156 11.9062 -2.7969 Q11.9062 -2.2188 11.4219 -1.7656 Q10.9219 -1.3125 10.0625 -1.2656 Q9.5938 -1.125 9.3594 -0.9375 Q9.2656 -0.8594 9.2656 -0.7969 Q9.2656 -0.7031 9.3438 -0.6328 Q9.4219 -0.5625 9.75 -0.4844 L10.6094 -0.2812 Q11.3125 -0.125 11.5312 0.1094 Q11.7656 0.3438 11.7656 0.6406 Q11.7656 1 11.5 1.3047 Q11.2344 1.6094 10.7188 1.7734 Q10.2031 1.9375 9.5938 1.9375 Q9.0469 1.9375 8.5938 1.8125 Q8.1406 1.6875 7.9531 1.4688 Q7.7656 1.25 7.7656 1.0156 Q7.7656 0.8281 7.8906 0.6172 Q8.0156 0.4062 8.2031 0.2812 Q8.3125 0.2031 8.875 -0.1094 Q8.6719 -0.2656 8.6719 -0.4688 Q8.6719 -0.6406 8.8516 -0.8359 Q9.0312 -1.0312 9.5938 -1.2656 Q9.1094 -1.3594 8.8281 -1.6719 Q8.5469 -1.9844 8.5469 -2.375 Q8.5469 -3 9.0938 -3.4922 Q9.6406 -3.9844 10.5469 -3.9844 Q10.8906 -3.9844 11.1016 -3.9141 Q11.3125 -3.8438 11.5 -3.7031 L12.6875 -3.7031 ZM11.1719 -3.0156 Q11.1719 -3.3594 10.9688 -3.5625 Q10.7656 -3.7656 10.4531 -3.7656 Q9.9531 -3.7656 9.6328 -3.2656 Q9.3125 -2.7656 9.3125 -2.2344 Q9.3125 -1.8906 9.5234 -1.6797 Q9.7344 -1.4688 10.0156 -1.4688 Q10.25 -1.4688 10.4688 -1.5938 Q10.6875 -1.7188 10.8359 -1.9453 Q10.9844 -2.1719 11.0781 -2.5156 Q11.1719 -2.8594 11.1719 -3.0156 ZM9.0625 0 Q8.7031 0.1562 8.5234 0.4141 Q8.3438 0.6719 8.3438 0.9219 Q8.3438 1.2031 8.6094 1.3906 Q8.9844 1.6719 9.7031 1.6719 Q10.3438 1.6719 10.7891 1.4609 Q11.2344 1.25 11.2344 0.9062 Q11.2344 0.7344 11.0703 0.5781 Q10.9062 0.4219 10.4219 0.3281 Q10.1719 0.2812 9.0625 0 ZM15.6406 -6.25 L14.4062 -1.9844 Q15.2031 -3.1875 15.6562 -3.5859 Q16.1094 -3.9844 16.5156 -3.9844 Q16.7188 -3.9844 16.8594 -3.8359 Q17 -3.6875 17 -3.4531 Q17 -3.1562 16.875 -2.75 L16.3438 -0.9062 Q16.25 -0.5625 16.25 -0.5312 Q16.25 -0.4688 16.2812 -0.4297 Q16.3125 -0.3906 16.3594 -0.3906 Q16.4219 -0.3906 16.5 -0.4531 Q16.75 -0.6406 17 -0.9844 L17.125 -0.9062 Q16.9844 -0.6719 16.7188 -0.3906 Q16.4531 -0.1094 16.2578 0 Q16.0625 0.1094 15.9219 0.1094 Q15.75 0.1094 15.6484 0.0078 Q15.5469 -0.0938 15.5469 -0.2656 Q15.5469 -0.4531 15.7031 -0.9844 L16.2031 -2.75 Q16.3125 -3.0781 16.3125 -3.2656 Q16.3125 -3.3438 16.25 -3.3984 Q16.1875 -3.4531 16.1094 -3.4531 Q15.9844 -3.4531 15.8125 -3.3594 Q15.5156 -3.1719 15.125 -2.6719 Q15.0156 -2.5312 14.4219 -1.5781 Q14.2344 -1.2656 14.125 -0.9062 L13.8438 0 L13.1875 0 L14.625 -5.0312 L14.7812 -5.5781 Q14.7812 -5.6875 14.6875 -5.7734 Q14.5938 -5.8594 14.4531 -5.8594 Q14.375 -5.8594 14.2188 -5.8438 L14.125 -5.8281 L14.125 -6 L15.6406 -6.25 ZM20.3438 -5.0625 L20 -3.875 L20.6875 -3.875 L20.6094 -3.5938 L19.9219 -3.5938 L19.1719 -1 Q19.0469 -0.5781 19.0469 -0.4688 Q19.0469 -0.3906 19.0781 -0.3516 Q19.1094 -0.3125 19.1719 -0.3125 Q19.2812 -0.3125 19.4531 -0.4688 Q19.5625 -0.5469 19.9219 -1 L20.0625 -0.8906 Q19.6719 -0.2969 19.3125 -0.0625 Q19.0625 0.1094 18.8125 0.1094 Q18.6094 0.1094 18.4922 -0.0156 Q18.375 -0.1406 18.375 -0.3281 Q18.375 -0.5625 18.5156 -1.0469 L19.25 -3.5938 L18.5781 -3.5938 L18.625 -3.7656 Q19.1094 -3.8906 19.4297 -4.1562 Q19.75 -4.4219 20.1406 -5.0625 L20.3438 -5.0625 ZM24.2656 -3.9844 L24 -2.625 L23.8281 -2.625 Q23.8125 -3.2188 23.5859 -3.4844 Q23.3594 -3.75 23.0156 -3.75 Q22.75 -3.75 22.5859 -3.6016 Q22.4219 -3.4531 22.4219 -3.25 Q22.4219 -3.0938 22.4844 -2.9609 Q22.5469 -2.8281 22.7656 -2.5938 Q23.3438 -1.9688 23.5078 -1.6562 Q23.6719 -1.3438 23.6719 -1.0625 Q23.6719 -0.6094 23.2891 -0.25 Q22.9062 0.1094 22.3281 0.1094 Q22.0156 0.1094 21.6094 -0.0469 Q21.4531 -0.0938 21.375 -0.0938 Q21.1875 -0.0938 21.0781 0.1094 L20.9219 0.1094 L21.1875 -1.3125 L21.3438 -1.3125 Q21.375 -0.6562 21.625 -0.375 Q21.875 -0.0938 22.3125 -0.0938 Q22.6406 -0.0938 22.8359 -0.2812 Q23.0312 -0.4688 23.0312 -0.75 Q23.0312 -0.9219 22.9688 -1.0625 Q22.8438 -1.3281 22.4531 -1.7969 Q22.0625 -2.2656 21.9453 -2.5 Q21.8281 -2.7344 21.8281 -2.9688 Q21.8281 -3.3906 22.1406 -3.6875 Q22.4531 -3.9844 22.9375 -3.9844 Q23.0781 -3.9844 23.1875 -3.9531 Q23.25 -3.9375 23.4766 -3.8516 Q23.7031 -3.7656 23.7812 -3.7656 Q23.9688 -3.7656 24.0938 -3.9844 L24.2656 -3.9844 Z" stroke="none"/></g><g text-rendering="optimizeLegibility" transform="translate(41.9531,12)" color-interpolation="linearRGB" color-rendering="optimizeQuality" image-rendering="optimizeQuality"><path d="M4.3594 -5.2969 L4 -3.5 L3.7812 -3.5 Q3.75 -4.2969 3.4453 -4.6484 Q3.1406 -5 2.6875 -5 Q2.3281 -5 2.1172 -4.8047 Q1.9062 -4.6094 1.9062 -4.3281 Q1.9062 -4.125 1.9844 -3.9531 Q2.0625 -3.7812 2.3594 -3.4688 Q3.125 -2.625 3.3438 -2.2031 Q3.5625 -1.7812 3.5625 -1.4062 Q3.5625 -0.7969 3.0547 -0.3281 Q2.5469 0.1406 1.7812 0.1406 Q1.3594 0.1406 0.7969 -0.0625 Q0.6094 -0.125 0.5 -0.125 Q0.2344 -0.125 0.1094 0.1406 L-0.1094 0.1406 L0.25 -1.7656 L0.4688 -1.7656 Q0.5 -0.875 0.8359 -0.5 Q1.1719 -0.125 1.75 -0.125 Q2.1875 -0.125 2.4531 -0.375 Q2.7188 -0.625 2.7188 -0.9844 Q2.7188 -1.2188 2.625 -1.4219 Q2.4531 -1.7812 1.9297 -2.3984 Q1.4062 -3.0156 1.2578 -3.3281 Q1.1094 -3.6406 1.1094 -3.9531 Q1.1094 -4.5156 1.5234 -4.9062 Q1.9375 -5.2969 2.5781 -5.2969 Q2.7656 -5.2969 2.9219 -5.2812 Q3 -5.25 3.3047 -5.1406 Q3.6094 -5.0312 3.7031 -5.0312 Q3.9688 -5.0312 4.125 -5.2969 L4.3594 -5.2969 ZM8.5156 -8.3281 L6.875 -2.6406 Q7.9375 -4.25 8.5391 -4.7734 Q9.1406 -5.2969 9.6875 -5.2969 Q9.9688 -5.2969 10.1562 -5.1094 Q10.3438 -4.9219 10.3438 -4.5938 Q10.3438 -4.2031 10.1719 -3.6562 L9.4531 -1.2031 Q9.3281 -0.75 9.3281 -0.7031 Q9.3281 -0.625 9.375 -0.5703 Q9.4219 -0.5156 9.4844 -0.5156 Q9.5625 -0.5156 9.6719 -0.5938 Q10 -0.8594 10.3281 -1.3125 L10.5156 -1.2031 Q10.3125 -0.8906 9.9531 -0.5156 Q9.5938 -0.1406 9.3438 0 Q9.0938 0.1406 8.8906 0.1406 Q8.6719 0.1406 8.5391 0 Q8.4062 -0.1406 8.4062 -0.3594 Q8.4062 -0.6094 8.6094 -1.3125 L9.2812 -3.6562 Q9.4062 -4.0938 9.4062 -4.3438 Q9.4062 -4.4688 9.3359 -4.5391 Q9.2656 -4.6094 9.1406 -4.6094 Q8.9688 -4.6094 8.75 -4.4844 Q8.3594 -4.2344 7.8438 -3.5625 Q7.7031 -3.375 6.9062 -2.0938 Q6.6562 -1.6875 6.5 -1.2031 L6.125 0 L5.2344 0 L7.1719 -6.7031 L7.375 -7.4375 Q7.375 -7.5781 7.25 -7.6953 Q7.125 -7.8125 6.9375 -7.8125 Q6.8281 -7.8125 6.625 -7.7812 L6.5 -7.7656 L6.5 -8 L8.5156 -8.3281 ZM16.625 -5.2969 L15.4844 -1.3281 L15.3594 -0.7969 Q15.3438 -0.7188 15.3438 -0.6719 Q15.3438 -0.5781 15.4062 -0.5 Q15.4531 -0.4531 15.5156 -0.4531 Q15.5938 -0.4531 15.7188 -0.5469 Q15.9531 -0.7188 16.3281 -1.25 L16.5312 -1.1094 Q16.125 -0.5 15.6953 -0.1797 Q15.2656 0.1406 14.9062 0.1406 Q14.6562 0.1406 14.5312 0.0156 Q14.4062 -0.1094 14.4062 -0.3594 Q14.4062 -0.6406 14.5312 -1.1094 L14.6562 -1.5469 Q13.8906 -0.5469 13.2344 -0.1406 Q12.7812 0.1406 12.3281 0.1406 Q11.9062 0.1406 11.5938 -0.2109 Q11.2812 -0.5625 11.2812 -1.1875 Q11.2812 -2.125 11.8438 -3.1562 Q12.4062 -4.1875 13.2656 -4.8125 Q13.9375 -5.2969 14.5312 -5.2969 Q14.8906 -5.2969 15.125 -5.1094 Q15.3594 -4.9219 15.4844 -4.5 L15.7031 -5.1562 L16.625 -5.2969 ZM14.5469 -5 Q14.1719 -5 13.75 -4.6406 Q13.1562 -4.1562 12.6875 -3.1719 Q12.2188 -2.1875 12.2188 -1.4062 Q12.2188 -1 12.4219 -0.7734 Q12.625 -0.5469 12.875 -0.5469 Q13.5156 -0.5469 14.2656 -1.4844 Q15.2656 -2.7344 15.2656 -4.0625 Q15.2656 -4.5469 15.0703 -4.7734 Q14.875 -5 14.5469 -5 ZM23.5 -8.3281 L21.4844 -1.4219 Q21.3125 -0.8594 21.3125 -0.6875 Q21.3125 -0.625 21.3594 -0.5703 Q21.4062 -0.5156 21.4688 -0.5156 Q21.5469 -0.5156 21.6406 -0.5938 Q21.8438 -0.7344 22.3125 -1.2969 L22.5156 -1.1719 Q22.0938 -0.5938 21.6641 -0.2266 Q21.2344 0.1406 20.8594 0.1406 Q20.6562 0.1406 20.5312 0 Q20.4062 -0.1406 20.4062 -0.4062 Q20.4062 -0.7344 20.5781 -1.2969 L20.7969 -2.0156 Q19.9531 -0.7031 19.25 -0.2031 Q18.7812 0.1406 18.3438 0.1406 Q17.8906 0.1406 17.5625 -0.2578 Q17.2344 -0.6562 17.2344 -1.3281 Q17.2344 -2.2031 17.7891 -3.1953 Q18.3438 -4.1875 19.25 -4.8125 Q19.9844 -5.2969 20.5781 -5.2969 Q20.8906 -5.2969 21.125 -5.1719 Q21.3594 -5.0469 21.5781 -4.75 L22.1562 -6.7812 Q22.2188 -7 22.25 -7.125 Q22.3281 -7.3594 22.3281 -7.5156 Q22.3281 -7.6406 22.2344 -7.7188 Q22.1094 -7.8281 21.9219 -7.8281 Q21.7812 -7.8281 21.4844 -7.7812 L21.4844 -8 L23.5 -8.3281 ZM21.3125 -4.1719 Q21.3125 -4.5469 21.1016 -4.7734 Q20.8906 -5 20.5469 -5 Q19.8125 -5 19.0156 -3.7812 Q18.2188 -2.5625 18.2188 -1.4531 Q18.2188 -1.0156 18.4062 -0.7812 Q18.5938 -0.5469 18.875 -0.5469 Q19.4844 -0.5469 20.3984 -1.8672 Q21.3125 -3.1875 21.3125 -4.1719 ZM28.5469 -3.4688 Q28.5469 -2.5938 28.0859 -1.7344 Q27.625 -0.875 26.7891 -0.3672 Q25.9531 0.1406 25.1719 0.1406 Q24.3594 0.1406 23.8594 -0.375 Q23.3594 -0.8906 23.3594 -1.7031 Q23.3594 -2.5625 23.8516 -3.4297 Q24.3438 -4.2969 25.1719 -4.7969 Q26 -5.2969 26.7812 -5.2969 Q27.5469 -5.2969 28.0469 -4.7891 Q28.5469 -4.2812 28.5469 -3.4688 ZM27.5781 -3.875 Q27.5781 -4.4219 27.3125 -4.7109 Q27.0469 -5 26.625 -5 Q25.7656 -5 25.0391 -3.7656 Q24.3125 -2.5312 24.3125 -1.3125 Q24.3125 -0.75 24.5938 -0.4531 Q24.875 -0.1562 25.2969 -0.1562 Q26.125 -0.1562 26.8516 -1.3828 Q27.5781 -2.6094 27.5781 -3.875 ZM34.0312 -5.2969 L34.4375 -0.9062 Q35.4531 -2.1094 36.0625 -3.1562 Q36.4219 -3.7656 36.4219 -4.0469 Q36.4219 -4.1719 36.3594 -4.2656 Q36.3438 -4.3281 36.1797 -4.4297 Q36.0156 -4.5312 35.9531 -4.6406 Q35.8906 -4.75 35.8906 -4.875 Q35.8906 -5.0469 36.0234 -5.1719 Q36.1562 -5.2969 36.3594 -5.2969 Q36.6094 -5.2969 36.7734 -5.125 Q36.9375 -4.9531 36.9375 -4.6406 Q36.9375 -4.3438 36.8594 -4.0781 Q36.6719 -3.5781 36.1719 -2.7812 Q35.5469 -1.8281 34.8906 -1.0078 Q34.2344 -0.1875 33.9062 0.1406 L33.6875 0.1406 L33.3125 -3.9219 L30.8906 0.1406 L30.625 0.1406 Q30.5938 -2.3594 30.375 -3.8125 Q30.2969 -4.4062 30.0781 -4.5938 Q29.9375 -4.7344 29.6406 -4.7344 Q29.4688 -4.7344 29.2031 -4.7031 L29.2031 -4.9062 L30.8906 -5.2969 Q31.2344 -4.3281 31.3438 -2.2969 Q31.375 -1.5312 31.4062 -1.3281 L33.8125 -5.2969 L34.0312 -5.2969 ZM39.25 2.4688 L39.0625 2.5625 Q38.3594 1.2344 38.0625 0.2188 Q37.8281 -0.5781 37.8281 -1.3906 Q37.8281 -3.2812 38.6875 -4.7656 Q39.7656 -6.5938 42.1719 -8.3281 L42.3125 -8.125 Q41.2188 -7.3281 40.5469 -6.3281 Q39.6875 -5.0938 39.1406 -3.3359 Q38.5938 -1.5781 38.5938 -0.125 Q38.5938 0.9688 39.25 2.4688 ZM44.5625 -8.3281 L42.5625 -1.3594 Q42.4219 -0.8438 42.4219 -0.7188 Q42.4219 -0.6406 42.4766 -0.5781 Q42.5312 -0.5156 42.6094 -0.5156 Q42.7188 -0.5156 42.8594 -0.6094 Q43.1562 -0.8594 43.4844 -1.3594 L43.6719 -1.1719 Q43.1094 -0.3906 42.6406 -0.0781 Q42.2969 0.1406 41.9844 0.1406 Q41.7656 0.1406 41.6172 -0.0156 Q41.4688 -0.1719 41.4688 -0.3594 Q41.4688 -0.5781 41.6562 -1.2344 L43.2344 -6.7344 Q43.4375 -7.4062 43.4375 -7.5 Q43.4375 -7.6406 43.3203 -7.7344 Q43.2031 -7.8281 42.9688 -7.8281 Q42.8438 -7.8281 42.5625 -7.7812 L42.5625 -8 L44.5625 -8.3281 ZM45.75 -8.2188 L45.9531 -8.3281 Q46.6406 -7.0156 46.9375 -5.9844 Q47.1875 -5.1875 47.1875 -4.3906 Q47.1875 -2.4844 46.3125 -1 Q45.2344 0.8281 42.8281 2.5625 L42.6875 2.3906 Q43.7812 1.5781 44.4688 0.5938 Q45.3125 -0.6562 45.8594 -2.4141 Q46.4062 -4.1719 46.4062 -5.625 Q46.4062 -6.7188 45.75 -8.2188 ZM54.75 -6.125 Q54.7188 -6.5156 54.5781 -6.9219 Q54.375 -7.5 54.375 -7.7188 Q54.375 -8.0156 54.5234 -8.1719 Q54.6719 -8.3281 54.875 -8.3281 Q55.0625 -8.3281 55.1953 -8.1719 Q55.3281 -8.0156 55.3281 -7.7188 Q55.3281 -7.4531 55.1719 -6.9844 Q55.0156 -6.5156 54.9844 -6.125 Q55.3125 -6.3281 55.5625 -6.6094 Q55.9688 -7.0781 56.1562 -7.1875 Q56.3438 -7.2969 56.5469 -7.2969 Q56.75 -7.2969 56.875 -7.1641 Q57 -7.0312 57 -6.8594 Q57 -6.6406 56.8125 -6.4688 Q56.625 -6.2969 55.8438 -6.125 Q55.3906 -6.0312 55.0938 -5.9062 Q55.4062 -5.75 55.8438 -5.6562 Q56.5469 -5.5312 56.7656 -5.3359 Q56.9844 -5.1406 56.9844 -4.9219 Q56.9844 -4.7344 56.8516 -4.6094 Q56.7188 -4.4844 56.5469 -4.4844 Q56.375 -4.4844 56.1641 -4.6094 Q55.9531 -4.7344 55.5781 -5.1562 Q55.3438 -5.4375 54.9844 -5.7031 Q55 -5.3594 55.125 -4.9688 Q55.3281 -4.2812 55.3281 -4.0312 Q55.3281 -3.7969 55.1875 -3.6328 Q55.0469 -3.4688 54.8906 -3.4688 Q54.6719 -3.4688 54.5 -3.6406 Q54.375 -3.7656 54.375 -4.0312 Q54.375 -4.3125 54.5078 -4.7109 Q54.6406 -5.1094 54.6797 -5.2578 Q54.7188 -5.4062 54.75 -5.7031 Q54.4062 -5.4688 54.1406 -5.1875 Q53.7188 -4.7031 53.5 -4.5781 Q53.3438 -4.4844 53.1875 -4.4844 Q52.9844 -4.4844 52.8438 -4.6172 Q52.7031 -4.75 52.7031 -4.9219 Q52.7031 -5.0625 52.8203 -5.2266 Q52.9375 -5.3906 53.1875 -5.4844 Q53.3438 -5.5625 53.9062 -5.6719 Q54.2656 -5.75 54.6094 -5.9062 Q54.2969 -6.0625 53.8594 -6.1406 Q53.1406 -6.2969 52.9688 -6.4219 Q52.7031 -6.6094 52.7031 -6.8906 Q52.7031 -7.0469 52.8359 -7.1797 Q52.9688 -7.3125 53.1406 -7.3125 Q53.3281 -7.3125 53.5469 -7.1875 Q53.7656 -7.0625 54.0859 -6.6953 Q54.4062 -6.3281 54.75 -6.125 ZM63.5625 -8.3281 L61.5625 -1.3594 Q61.4219 -0.8438 61.4219 -0.7188 Q61.4219 -0.6406 61.4766 -0.5781 Q61.5312 -0.5156 61.6094 -0.5156 Q61.7188 -0.5156 61.8594 -0.6094 Q62.1562 -0.8594 62.4844 -1.3594 L62.6719 -1.1719 Q62.1094 -0.3906 61.6406 -0.0781 Q61.2969 0.1406 60.9844 0.1406 Q60.7656 0.1406 60.6172 -0.0156 Q60.4688 -0.1719 60.4688 -0.3594 Q60.4688 -0.5781 60.6562 -1.2344 L62.2344 -6.7344 Q62.4375 -7.4062 62.4375 -7.5 Q62.4375 -7.6406 62.3203 -7.7344 Q62.2031 -7.8281 61.9688 -7.8281 Q61.8438 -7.8281 61.5625 -7.7812 L61.5625 -8 L63.5625 -8.3281 ZM65.6875 -7.625 Q65.9375 -7.625 66.1016 -7.4609 Q66.2656 -7.2969 66.2656 -7.0469 Q66.2656 -6.7969 66.0938 -6.625 Q65.9219 -6.4531 65.6875 -6.4531 Q65.4375 -6.4531 65.2656 -6.625 Q65.0938 -6.7969 65.0938 -7.0469 Q65.0938 -7.2969 65.2656 -7.4609 Q65.4375 -7.625 65.6875 -7.625 ZM65.7656 -5.2969 L64.5938 -1.2031 Q64.4844 -0.7812 64.4844 -0.7031 Q64.4844 -0.6094 64.5391 -0.5469 Q64.5938 -0.4844 64.6719 -0.4844 Q64.7656 -0.4844 64.875 -0.5781 Q65.2188 -0.8438 65.5625 -1.3281 L65.7656 -1.2031 Q65.3594 -0.5938 64.8281 -0.1719 Q64.4219 0.1406 64.0625 0.1406 Q63.8281 0.1406 63.6719 0 Q63.5156 -0.1406 63.5156 -0.3594 Q63.5156 -0.5781 63.6562 -1.0781 L64.4219 -3.7031 Q64.6094 -4.3594 64.6094 -4.5156 Q64.6094 -4.6406 64.5234 -4.7266 Q64.4375 -4.8125 64.2656 -4.8125 Q64.1406 -4.8125 63.7344 -4.75 L63.7344 -4.9688 L65.7656 -5.2969 ZM72.25 -4.9375 L72.0781 -4.3281 L71.1094 -4.3281 Q71.2188 -4.0156 71.2188 -3.7344 Q71.2188 -2.9688 70.5625 -2.3594 Q69.8906 -1.7656 68.75 -1.6875 Q68.125 -1.5 67.8125 -1.25 Q67.6875 -1.1562 67.6875 -1.0625 Q67.6875 -0.9375 67.7969 -0.8438 Q67.9062 -0.75 68.3281 -0.6406 L69.4688 -0.375 Q70.4062 -0.1562 70.7188 0.1406 Q71.0156 0.4531 71.0156 0.8594 Q71.0156 1.3438 70.6641 1.7422 Q70.3125 2.1406 69.625 2.3672 Q68.9375 2.5938 68.1094 2.5938 Q67.3906 2.5938 66.7891 2.4219 Q66.1875 2.25 65.9297 1.9531 Q65.6719 1.6562 65.6719 1.3438 Q65.6719 1.0938 65.8438 0.8203 Q66.0156 0.5469 66.2656 0.375 Q66.4219 0.2656 67.1562 -0.1562 Q66.8906 -0.3594 66.8906 -0.6094 Q66.8906 -0.8438 67.125 -1.1094 Q67.3594 -1.375 68.1406 -1.6875 Q67.4844 -1.8125 67.1094 -2.2344 Q66.7344 -2.6562 66.7344 -3.1562 Q66.7344 -3.9844 67.4609 -4.6406 Q68.1875 -5.2969 69.4062 -5.2969 Q69.8438 -5.2969 70.125 -5.2109 Q70.4062 -5.125 70.6719 -4.9375 L72.25 -4.9375 ZM70.2188 -4.0156 Q70.2188 -4.4844 69.9609 -4.7578 Q69.7031 -5.0312 69.2812 -5.0312 Q68.6094 -5.0312 68.1797 -4.3672 Q67.75 -3.7031 67.75 -2.9844 Q67.75 -2.5312 68.0234 -2.2422 Q68.2969 -1.9531 68.7031 -1.9531 Q69 -1.9531 69.2969 -2.125 Q69.5938 -2.2969 69.7891 -2.5938 Q69.9844 -2.8906 70.1016 -3.3516 Q70.2188 -3.8125 70.2188 -4.0156 ZM67.4062 0 Q66.9375 0.2188 66.6953 0.5547 Q66.4531 0.8906 66.4531 1.2188 Q66.4531 1.6094 66.7969 1.8594 Q67.3125 2.2344 68.2812 2.2344 Q69.125 2.2344 69.7188 1.9453 Q70.3125 1.6562 70.3125 1.2031 Q70.3125 0.9844 70.0938 0.7734 Q69.875 0.5625 69.2344 0.4375 Q68.8906 0.375 67.4062 0 ZM75.5156 -8.3281 L73.875 -2.6406 Q74.9375 -4.25 75.5391 -4.7734 Q76.1406 -5.2969 76.6875 -5.2969 Q76.9688 -5.2969 77.1562 -5.1094 Q77.3438 -4.9219 77.3438 -4.5938 Q77.3438 -4.2031 77.1719 -3.6562 L76.4531 -1.2031 Q76.3281 -0.75 76.3281 -0.7031 Q76.3281 -0.625 76.375 -0.5703 Q76.4219 -0.5156 76.4844 -0.5156 Q76.5625 -0.5156 76.6719 -0.5938 Q77 -0.8594 77.3281 -1.3125 L77.5156 -1.2031 Q77.3125 -0.8906 76.9531 -0.5156 Q76.5938 -0.1406 76.3438 0 Q76.0938 0.1406 75.8906 0.1406 Q75.6719 0.1406 75.5391 0 Q75.4062 -0.1406 75.4062 -0.3594 Q75.4062 -0.6094 75.6094 -1.3125 L76.2812 -3.6562 Q76.4062 -4.0938 76.4062 -4.3438 Q76.4062 -4.4688 76.3359 -4.5391 Q76.2656 -4.6094 76.1406 -4.6094 Q75.9688 -4.6094 75.75 -4.4844 Q75.3594 -4.2344 74.8438 -3.5625 Q74.7031 -3.375 73.9062 -2.0938 Q73.6562 -1.6875 73.5 -1.2031 L73.125 0 L72.2344 0 L74.1719 -6.7031 L74.375 -7.4375 Q74.375 -7.5781 74.25 -7.6953 Q74.125 -7.8125 73.9375 -7.8125 Q73.8281 -7.8125 73.625 -7.7812 L73.5 -7.7656 L73.5 -8 L75.5156 -8.3281 ZM81.125 -6.75 L80.6562 -5.1562 L81.5781 -5.1562 L81.4844 -4.7969 L80.5625 -4.7969 L79.5625 -1.3438 Q79.3906 -0.7812 79.3906 -0.6094 Q79.3906 -0.5156 79.4375 -0.4609 Q79.4844 -0.4062 79.5469 -0.4062 Q79.7031 -0.4062 79.9375 -0.6094 Q80.0781 -0.7344 80.5625 -1.3438 L80.7656 -1.1875 Q80.2188 -0.4062 79.7344 -0.0781 Q79.4062 0.1406 79.0781 0.1406 Q78.8281 0.1406 78.6641 -0.0234 Q78.5 -0.1875 78.5 -0.4375 Q78.5 -0.75 78.6875 -1.4062 L79.6562 -4.7969 L78.7812 -4.7969 L78.8281 -5.0156 Q79.4844 -5.2031 79.9062 -5.5469 Q80.3281 -5.8906 80.8594 -6.75 L81.125 -6.75 ZM87.1094 2.5938 L80.9062 2.5938 L80.9062 2.0938 L87.1094 2.0938 L87.1094 2.5938 ZM91.6406 -1.2812 Q91.0312 -0.5469 90.4062 -0.2031 Q89.7812 0.1406 89.0938 0.1406 Q88.2656 0.1406 87.7969 -0.3281 Q87.3281 -0.7969 87.3281 -1.5938 Q87.3281 -2.4844 87.8281 -3.3516 Q88.3281 -4.2188 89.1797 -4.7578 Q90.0312 -5.2969 90.8438 -5.2969 Q91.4844 -5.2969 91.7969 -5.0312 Q92.1094 -4.7656 92.1094 -4.3906 Q92.1094 -4.0156 91.8906 -3.7656 Q91.7188 -3.5625 91.4844 -3.5625 Q91.2969 -3.5625 91.1797 -3.6797 Q91.0625 -3.7969 91.0625 -3.9688 Q91.0625 -4.0781 91.1094 -4.1719 Q91.1562 -4.2656 91.2891 -4.3984 Q91.4219 -4.5312 91.4531 -4.5938 Q91.4844 -4.6562 91.4844 -4.7188 Q91.4844 -4.8438 91.375 -4.9219 Q91.2031 -5.0469 90.8906 -5.0469 Q90.3125 -5.0469 89.75 -4.6406 Q89.1875 -4.2344 88.7969 -3.4844 Q88.3125 -2.5781 88.3125 -1.6875 Q88.3125 -1.0781 88.6562 -0.7344 Q89 -0.3906 89.5781 -0.3906 Q90.0312 -0.3906 90.4766 -0.6172 Q90.9219 -0.8438 91.4688 -1.4375 L91.6406 -1.2812 ZM97.5469 -3.4688 Q97.5469 -2.5938 97.0859 -1.7344 Q96.625 -0.875 95.7891 -0.3672 Q94.9531 0.1406 94.1719 0.1406 Q93.3594 0.1406 92.8594 -0.375 Q92.3594 -0.8906 92.3594 -1.7031 Q92.3594 -2.5625 92.8516 -3.4297 Q93.3438 -4.2969 94.1719 -4.7969 Q95 -5.2969 95.7812 -5.2969 Q96.5469 -5.2969 97.0469 -4.7891 Q97.5469 -4.2812 97.5469 -3.4688 ZM96.5781 -3.875 Q96.5781 -4.4219 96.3125 -4.7109 Q96.0469 -5 95.625 -5 Q94.7656 -5 94.0391 -3.7656 Q93.3125 -2.5312 93.3125 -1.3125 Q93.3125 -0.75 93.5938 -0.4531 Q93.875 -0.1562 94.2969 -0.1562 Q95.125 -0.1562 95.8516 -1.3828 Q96.5781 -2.6094 96.5781 -3.875 ZM101.5625 -8.3281 L99.5625 -1.3594 Q99.4219 -0.8438 99.4219 -0.7188 Q99.4219 -0.6406 99.4766 -0.5781 Q99.5312 -0.5156 99.6094 -0.5156 Q99.7188 -0.5156 99.8594 -0.6094 Q100.1562 -0.8594 100.4844 -1.3594 L100.6719 -1.1719 Q100.1094 -0.3906 99.6406 -0.0781 Q99.2969 0.1406 98.9844 0.1406 Q98.7656 0.1406 98.6172 -0.0156 Q98.4688 -0.1719 98.4688 -0.3594 Q98.4688 -0.5781 98.6562 -1.2344 L100.2344 -6.7344 Q100.4375 -7.4062 100.4375 -7.5 Q100.4375 -7.6406 100.3203 -7.7344 Q100.2031 -7.8281 99.9688 -7.8281 Q99.8438 -7.8281 99.5625 -7.7812 L99.5625 -8 L101.5625 -8.3281 ZM106.5469 -3.4688 Q106.5469 -2.5938 106.0859 -1.7344 Q105.625 -0.875 104.7891 -0.3672 Q103.9531 0.1406 103.1719 0.1406 Q102.3594 0.1406 101.8594 -0.375 Q101.3594 -0.8906 101.3594 -1.7031 Q101.3594 -2.5625 101.8516 -3.4297 Q102.3438 -4.2969 103.1719 -4.7969 Q104 -5.2969 104.7812 -5.2969 Q105.5469 -5.2969 106.0469 -4.7891 Q106.5469 -4.2812 106.5469 -3.4688 ZM105.5781 -3.875 Q105.5781 -4.4219 105.3125 -4.7109 Q105.0469 -5 104.625 -5 Q103.7656 -5 103.0391 -3.7656 Q102.3125 -2.5312 102.3125 -1.3125 Q102.3125 -0.75 102.5938 -0.4531 Q102.875 -0.1562 103.2969 -0.1562 Q104.125 -0.1562 104.8516 -1.3828 Q105.5781 -2.6094 105.5781 -3.875 ZM107.625 -4.9688 L109.6562 -5.2969 L108.8125 -2.4531 Q109.8281 -4.2031 110.6719 -4.9062 Q111.1406 -5.2969 111.4375 -5.2969 Q111.6406 -5.2969 111.75 -5.1875 Q111.8594 -5.0781 111.8594 -4.8594 Q111.8594 -4.4688 111.6562 -4.125 Q111.5156 -3.8594 111.25 -3.8594 Q111.125 -3.8594 111.0234 -3.9453 Q110.9219 -4.0312 110.9062 -4.2188 Q110.8906 -4.3281 110.8438 -4.3594 Q110.7969 -4.4062 110.7344 -4.4062 Q110.6406 -4.4062 110.5469 -4.3594 Q110.4062 -4.2812 110.0938 -3.9062 Q109.6094 -3.3281 109.0312 -2.4219 Q108.7812 -2.0312 108.6094 -1.5469 Q108.3594 -0.875 108.3281 -0.7344 L108.1406 0 L107.25 0 L108.3281 -3.6406 Q108.5156 -4.2656 108.5156 -4.5469 Q108.5156 -4.6406 108.4375 -4.7188 Q108.3125 -4.8125 108.125 -4.8125 Q108 -4.8125 107.6719 -4.7656 L107.625 -4.9688 ZM114.25 2.4688 L114.0625 2.5625 Q113.3594 1.2344 113.0625 0.2188 Q112.8281 -0.5781 112.8281 -1.3906 Q112.8281 -3.2812 113.6875 -4.7656 Q114.7656 -6.5938 117.1719 -8.3281 L117.3125 -8.125 Q116.2188 -7.3281 115.5469 -6.3281 Q114.6875 -5.0938 114.1406 -3.3359 Q113.5938 -1.5781 113.5938 -0.125 Q113.5938 0.9688 114.25 2.4688 ZM119.5625 -8.3281 L117.5625 -1.3594 Q117.4219 -0.8438 117.4219 -0.7188 Q117.4219 -0.6406 117.4766 -0.5781 Q117.5312 -0.5156 117.6094 -0.5156 Q117.7188 -0.5156 117.8594 -0.6094 Q118.1562 -0.8594 118.4844 -1.3594 L118.6719 -1.1719 Q118.1094 -0.3906 117.6406 -0.0781 Q117.2969 0.1406 116.9844 0.1406 Q116.7656 0.1406 116.6172 -0.0156 Q116.4688 -0.1719 116.4688 -0.3594 Q116.4688 -0.5781 116.6562 -1.2344 L118.2344 -6.7344 Q118.4375 -7.4062 118.4375 -7.5 Q118.4375 -7.6406 118.3203 -7.7344 Q118.2031 -7.8281 117.9688 -7.8281 Q117.8438 -7.8281 117.5625 -7.7812 L117.5625 -8 L119.5625 -8.3281 ZM118.875 1.3125 Q119.3125 1.125 119.5938 0.8125 Q119.7969 0.5781 119.7969 0.3594 Q119.7969 0.2656 119.7656 0.1719 Q119.75 0.125 119.6094 -0.0156 Q119.4688 -0.1562 119.4531 -0.2188 Q119.4062 -0.3125 119.4062 -0.4375 Q119.4062 -0.6875 119.5781 -0.875 Q119.75 -1.0625 119.9844 -1.0625 Q120.2188 -1.0625 120.4062 -0.8672 Q120.5938 -0.6719 120.5938 -0.375 Q120.5938 0.1406 120.1875 0.6797 Q119.7812 1.2188 119 1.5 L118.875 1.3125 ZM127.6094 -5.2969 L126.8438 -2.6562 Q127.3438 -3.5938 127.7031 -4.0625 Q128.2656 -4.7812 128.7969 -5.1094 Q129.1094 -5.2969 129.4375 -5.2969 Q129.7344 -5.2969 129.9297 -5.1094 Q130.125 -4.9219 130.125 -4.6406 Q130.125 -4.3438 129.9844 -3.8906 L129.5781 -2.3906 Q130.5312 -4.1875 131.375 -4.9062 Q131.8594 -5.2969 132.3125 -5.2969 Q132.5938 -5.2969 132.7656 -5.1172 Q132.9375 -4.9375 132.9375 -4.5469 Q132.9375 -4.2031 132.8281 -3.8281 L132.1875 -1.5469 Q131.9688 -0.7969 131.9688 -0.7188 Q131.9688 -0.6406 132.0312 -0.5781 Q132.0625 -0.5469 132.125 -0.5469 Q132.1719 -0.5469 132.3281 -0.6562 Q132.6562 -0.9062 132.9531 -1.3281 L133.1406 -1.2031 Q133 -0.9688 132.625 -0.5625 Q132.25 -0.1562 131.9922 -0.0078 Q131.7344 0.1406 131.5 0.1406 Q131.2969 0.1406 131.1641 0 Q131.0312 -0.1406 131.0312 -0.3438 Q131.0312 -0.625 131.2656 -1.4844 L131.7969 -3.3594 Q131.9844 -4.0156 131.9844 -4.0781 Q132.0156 -4.1875 132.0156 -4.2969 Q132.0156 -4.4375 131.9375 -4.5312 Q131.875 -4.6094 131.7812 -4.6094 Q131.5469 -4.6094 131.2656 -4.3594 Q130.4531 -3.6094 129.75 -2.2656 Q129.2969 -1.3906 128.8906 0 L128 0 L129 -3.5469 Q129.1719 -4.125 129.1719 -4.3125 Q129.1719 -4.4688 129.1016 -4.5469 Q129.0312 -4.625 128.9375 -4.625 Q128.75 -4.625 128.5312 -4.4844 Q128.1875 -4.25 127.6328 -3.5 Q127.0781 -2.75 126.7656 -2.0625 Q126.625 -1.75 126.0781 0 L125.2031 0 L126.2969 -3.7969 L126.4375 -4.2969 Q126.4688 -4.4062 126.4688 -4.4531 Q126.4688 -4.5781 126.3516 -4.6797 Q126.2344 -4.7812 126.0625 -4.7812 Q125.9844 -4.7812 125.6406 -4.7188 L125.5781 -4.9375 L127.6094 -5.2969 ZM139.625 -5.2969 L138.4844 -1.3281 L138.3594 -0.7969 Q138.3438 -0.7188 138.3438 -0.6719 Q138.3438 -0.5781 138.4062 -0.5 Q138.4531 -0.4531 138.5156 -0.4531 Q138.5938 -0.4531 138.7188 -0.5469 Q138.9531 -0.7188 139.3281 -1.25 L139.5312 -1.1094 Q139.125 -0.5 138.6953 -0.1797 Q138.2656 0.1406 137.9062 0.1406 Q137.6562 0.1406 137.5312 0.0156 Q137.4062 -0.1094 137.4062 -0.3594 Q137.4062 -0.6406 137.5312 -1.1094 L137.6562 -1.5469 Q136.8906 -0.5469 136.2344 -0.1406 Q135.7812 0.1406 135.3281 0.1406 Q134.9062 0.1406 134.5938 -0.2109 Q134.2812 -0.5625 134.2812 -1.1875 Q134.2812 -2.125 134.8438 -3.1562 Q135.4062 -4.1875 136.2656 -4.8125 Q136.9375 -5.2969 137.5312 -5.2969 Q137.8906 -5.2969 138.125 -5.1094 Q138.3594 -4.9219 138.4844 -4.5 L138.7031 -5.1562 L139.625 -5.2969 ZM137.5469 -5 Q137.1719 -5 136.75 -4.6406 Q136.1562 -4.1562 135.6875 -3.1719 Q135.2188 -2.1875 135.2188 -1.4062 Q135.2188 -1 135.4219 -0.7734 Q135.625 -0.5469 135.875 -0.5469 Q136.5156 -0.5469 137.2656 -1.4844 Q138.2656 -2.7344 138.2656 -4.0625 Q138.2656 -4.5469 138.0703 -4.7734 Q137.875 -5 137.5469 -5 ZM143.125 -6.75 L142.6562 -5.1562 L143.5781 -5.1562 L143.4844 -4.7969 L142.5625 -4.7969 L141.5625 -1.3438 Q141.3906 -0.7812 141.3906 -0.6094 Q141.3906 -0.5156 141.4375 -0.4609 Q141.4844 -0.4062 141.5469 -0.4062 Q141.7031 -0.4062 141.9375 -0.6094 Q142.0781 -0.7344 142.5625 -1.3438 L142.7656 -1.1875 Q142.2188 -0.4062 141.7344 -0.0781 Q141.4062 0.1406 141.0781 0.1406 Q140.8281 0.1406 140.6641 -0.0234 Q140.5 -0.1875 140.5 -0.4375 Q140.5 -0.75 140.6875 -1.4062 L141.6562 -4.7969 L140.7812 -4.7969 L140.8281 -5.0156 Q141.4844 -5.2031 141.9062 -5.5469 Q142.3281 -5.8906 142.8594 -6.75 L143.125 -6.75 ZM144.4375 -2.2031 Q144.3906 -1.9219 144.3906 -1.7188 Q144.3906 -1.2031 144.7578 -0.8359 Q145.125 -0.4688 145.6562 -0.4688 Q146.0781 -0.4688 146.4688 -0.6406 Q146.8594 -0.8125 147.625 -1.4062 L147.75 -1.2344 Q146.3594 0.1406 145.0938 0.1406 Q144.25 0.1406 143.8125 -0.3984 Q143.375 -0.9375 143.375 -1.5938 Q143.375 -2.4688 143.9141 -3.3828 Q144.4531 -4.2969 145.2656 -4.7969 Q146.0781 -5.2969 146.9375 -5.2969 Q147.5625 -5.2969 147.8594 -5.0469 Q148.1562 -4.7969 148.1562 -4.4531 Q148.1562 -3.9688 147.7812 -3.5156 Q147.2656 -2.9375 146.2812 -2.5781 Q145.625 -2.3438 144.4375 -2.2031 ZM144.4688 -2.5 Q145.3438 -2.5938 145.8906 -2.8438 Q146.6094 -3.1562 146.9688 -3.6094 Q147.3281 -4.0625 147.3281 -4.4531 Q147.3281 -4.7031 147.1719 -4.8594 Q147.0156 -5.0156 146.7344 -5.0156 Q146.125 -5.0156 145.4531 -4.375 Q144.7812 -3.7344 144.4688 -2.5 ZM148.625 -4.9688 L150.6562 -5.2969 L149.8125 -2.4531 Q150.8281 -4.2031 151.6719 -4.9062 Q152.1406 -5.2969 152.4375 -5.2969 Q152.6406 -5.2969 152.75 -5.1875 Q152.8594 -5.0781 152.8594 -4.8594 Q152.8594 -4.4688 152.6562 -4.125 Q152.5156 -3.8594 152.25 -3.8594 Q152.125 -3.8594 152.0234 -3.9453 Q151.9219 -4.0312 151.9062 -4.2188 Q151.8906 -4.3281 151.8438 -4.3594 Q151.7969 -4.4062 151.7344 -4.4062 Q151.6406 -4.4062 151.5469 -4.3594 Q151.4062 -4.2812 151.0938 -3.9062 Q150.6094 -3.3281 150.0312 -2.4219 Q149.7812 -2.0312 149.6094 -1.5469 Q149.3594 -0.875 149.3281 -0.7344 L149.1406 0 L148.25 0 L149.3281 -3.6406 Q149.5156 -4.2656 149.5156 -4.5469 Q149.5156 -4.6406 149.4375 -4.7188 Q149.3125 -4.8125 149.125 -4.8125 Q149 -4.8125 148.6719 -4.7656 L148.625 -4.9688 ZM155.6875 -7.625 Q155.9375 -7.625 156.1016 -7.4609 Q156.2656 -7.2969 156.2656 -7.0469 Q156.2656 -6.7969 156.0938 -6.625 Q155.9219 -6.4531 155.6875 -6.4531 Q155.4375 -6.4531 155.2656 -6.625 Q155.0938 -6.7969 155.0938 -7.0469 Q155.0938 -7.2969 155.2656 -7.4609 Q155.4375 -7.625 155.6875 -7.625 ZM155.7656 -5.2969 L154.5938 -1.2031 Q154.4844 -0.7812 154.4844 -0.7031 Q154.4844 -0.6094 154.5391 -0.5469 Q154.5938 -0.4844 154.6719 -0.4844 Q154.7656 -0.4844 154.875 -0.5781 Q155.2188 -0.8438 155.5625 -1.3281 L155.7656 -1.2031 Q155.3594 -0.5938 154.8281 -0.1719 Q154.4219 0.1406 154.0625 0.1406 Q153.8281 0.1406 153.6719 0 Q153.5156 -0.1406 153.5156 -0.3594 Q153.5156 -0.5781 153.6562 -1.0781 L154.4219 -3.7031 Q154.6094 -4.3594 154.6094 -4.5156 Q154.6094 -4.6406 154.5234 -4.7266 Q154.4375 -4.8125 154.2656 -4.8125 Q154.1406 -4.8125 153.7344 -4.75 L153.7344 -4.9688 L155.7656 -5.2969 ZM161.625 -5.2969 L160.4844 -1.3281 L160.3594 -0.7969 Q160.3438 -0.7188 160.3438 -0.6719 Q160.3438 -0.5781 160.4062 -0.5 Q160.4531 -0.4531 160.5156 -0.4531 Q160.5938 -0.4531 160.7188 -0.5469 Q160.9531 -0.7188 161.3281 -1.25 L161.5312 -1.1094 Q161.125 -0.5 160.6953 -0.1797 Q160.2656 0.1406 159.9062 0.1406 Q159.6562 0.1406 159.5312 0.0156 Q159.4062 -0.1094 159.4062 -0.3594 Q159.4062 -0.6406 159.5312 -1.1094 L159.6562 -1.5469 Q158.8906 -0.5469 158.2344 -0.1406 Q157.7812 0.1406 157.3281 0.1406 Q156.9062 0.1406 156.5938 -0.2109 Q156.2812 -0.5625 156.2812 -1.1875 Q156.2812 -2.125 156.8438 -3.1562 Q157.4062 -4.1875 158.2656 -4.8125 Q158.9375 -5.2969 159.5312 -5.2969 Q159.8906 -5.2969 160.125 -5.1094 Q160.3594 -4.9219 160.4844 -4.5 L160.7031 -5.1562 L161.625 -5.2969 ZM159.5469 -5 Q159.1719 -5 158.75 -4.6406 Q158.1562 -4.1562 157.6875 -3.1719 Q157.2188 -2.1875 157.2188 -1.4062 Q157.2188 -1 157.4219 -0.7734 Q157.625 -0.5469 157.875 -0.5469 Q158.5156 -0.5469 159.2656 -1.4844 Q160.2656 -2.7344 160.2656 -4.0625 Q160.2656 -4.5469 160.0703 -4.7734 Q159.875 -5 159.5469 -5 ZM165.5625 -8.3281 L163.5625 -1.3594 Q163.4219 -0.8438 163.4219 -0.7188 Q163.4219 -0.6406 163.4766 -0.5781 Q163.5312 -0.5156 163.6094 -0.5156 Q163.7188 -0.5156 163.8594 -0.6094 Q164.1562 -0.8594 164.4844 -1.3594 L164.6719 -1.1719 Q164.1094 -0.3906 163.6406 -0.0781 Q163.2969 0.1406 162.9844 0.1406 Q162.7656 0.1406 162.6172 -0.0156 Q162.4688 -0.1719 162.4688 -0.3594 Q162.4688 -0.5781 162.6562 -1.2344 L164.2344 -6.7344 Q164.4375 -7.4062 164.4375 -7.5 Q164.4375 -7.6406 164.3203 -7.7344 Q164.2031 -7.8281 163.9688 -7.8281 Q163.8438 -7.8281 163.5625 -7.7812 L163.5625 -8 L165.5625 -8.3281 ZM164.875 1.3125 Q165.3125 1.125 165.5938 0.8125 Q165.7969 0.5781 165.7969 0.3594 Q165.7969 0.2656 165.7656 0.1719 Q165.75 0.125 165.6094 -0.0156 Q165.4688 -0.1562 165.4531 -0.2188 Q165.4062 -0.3125 165.4062 -0.4375 Q165.4062 -0.6875 165.5781 -0.875 Q165.75 -1.0625 165.9844 -1.0625 Q166.2188 -1.0625 166.4062 -0.8672 Q166.5938 -0.6719 166.5938 -0.375 Q166.5938 0.1406 166.1875 0.6797 Q165.7812 1.2188 165 1.5 L164.875 1.3125 ZM173.6562 -5.2969 L172.875 -2.6406 Q173.9688 -4.2656 174.5469 -4.7812 Q175.125 -5.2969 175.6719 -5.2969 Q175.9688 -5.2969 176.1562 -5.1094 Q176.3438 -4.9219 176.3438 -4.6094 Q176.3438 -4.25 176.1719 -3.6719 L175.4531 -1.2031 Q175.3438 -0.7812 175.3438 -0.6875 Q175.3438 -0.5938 175.3906 -0.5391 Q175.4375 -0.4844 175.4844 -0.4844 Q175.5469 -0.4844 175.6562 -0.5625 Q175.9688 -0.8125 176.3281 -1.3125 L176.5156 -1.2031 Q175.9688 -0.4219 175.4844 -0.0938 Q175.1406 0.1406 174.875 0.1406 Q174.6562 0.1406 174.5312 0.0078 Q174.4062 -0.125 174.4062 -0.3438 Q174.4062 -0.625 174.5938 -1.3125 L175.2812 -3.6719 Q175.4062 -4.1094 175.4062 -4.3594 Q175.4062 -4.4688 175.3281 -4.5469 Q175.25 -4.625 175.1406 -4.625 Q174.9844 -4.625 174.75 -4.4844 Q174.3125 -4.2188 173.8438 -3.6094 Q173.375 -3 172.8594 -2.0625 Q172.5781 -1.5625 172.4062 -0.9688 L172.1094 0 L171.2344 0 L172.2969 -3.6719 Q172.4844 -4.3281 172.4844 -4.4688 Q172.4844 -4.5938 172.3828 -4.6875 Q172.2812 -4.7812 172.125 -4.7812 Q172.0625 -4.7812 171.875 -4.7656 L171.6562 -4.7344 L171.625 -4.9375 L173.6562 -5.2969 ZM182.5469 -3.4688 Q182.5469 -2.5938 182.0859 -1.7344 Q181.625 -0.875 180.7891 -0.3672 Q179.9531 0.1406 179.1719 0.1406 Q178.3594 0.1406 177.8594 -0.375 Q177.3594 -0.8906 177.3594 -1.7031 Q177.3594 -2.5625 177.8516 -3.4297 Q178.3438 -4.2969 179.1719 -4.7969 Q180 -5.2969 180.7812 -5.2969 Q181.5469 -5.2969 182.0469 -4.7891 Q182.5469 -4.2812 182.5469 -3.4688 ZM181.5781 -3.875 Q181.5781 -4.4219 181.3125 -4.7109 Q181.0469 -5 180.625 -5 Q179.7656 -5 179.0391 -3.7656 Q178.3125 -2.5312 178.3125 -1.3125 Q178.3125 -0.75 178.5938 -0.4531 Q178.875 -0.1562 179.2969 -0.1562 Q180.125 -0.1562 180.8516 -1.3828 Q181.5781 -2.6094 181.5781 -3.875 ZM183.625 -4.9688 L185.6562 -5.2969 L184.8125 -2.4531 Q185.8281 -4.2031 186.6719 -4.9062 Q187.1406 -5.2969 187.4375 -5.2969 Q187.6406 -5.2969 187.75 -5.1875 Q187.8594 -5.0781 187.8594 -4.8594 Q187.8594 -4.4688 187.6562 -4.125 Q187.5156 -3.8594 187.25 -3.8594 Q187.125 -3.8594 187.0234 -3.9453 Q186.9219 -4.0312 186.9062 -4.2188 Q186.8906 -4.3281 186.8438 -4.3594 Q186.7969 -4.4062 186.7344 -4.4062 Q186.6406 -4.4062 186.5469 -4.3594 Q186.4062 -4.2812 186.0938 -3.9062 Q185.6094 -3.3281 185.0312 -2.4219 Q184.7812 -2.0312 184.6094 -1.5469 Q184.3594 -0.875 184.3281 -0.7344 L184.1406 0 L183.25 0 L184.3281 -3.6406 Q184.5156 -4.2656 184.5156 -4.5469 Q184.5156 -4.6406 184.4375 -4.7188 Q184.3125 -4.8125 184.125 -4.8125 Q184 -4.8125 183.6719 -4.7656 L183.625 -4.9688 ZM190.6094 -5.2969 L189.8438 -2.6562 Q190.3438 -3.5938 190.7031 -4.0625 Q191.2656 -4.7812 191.7969 -5.1094 Q192.1094 -5.2969 192.4375 -5.2969 Q192.7344 -5.2969 192.9297 -5.1094 Q193.125 -4.9219 193.125 -4.6406 Q193.125 -4.3438 192.9844 -3.8906 L192.5781 -2.3906 Q193.5312 -4.1875 194.375 -4.9062 Q194.8594 -5.2969 195.3125 -5.2969 Q195.5938 -5.2969 195.7656 -5.1172 Q195.9375 -4.9375 195.9375 -4.5469 Q195.9375 -4.2031 195.8281 -3.8281 L195.1875 -1.5469 Q194.9688 -0.7969 194.9688 -0.7188 Q194.9688 -0.6406 195.0312 -0.5781 Q195.0625 -0.5469 195.125 -0.5469 Q195.1719 -0.5469 195.3281 -0.6562 Q195.6562 -0.9062 195.9531 -1.3281 L196.1406 -1.2031 Q196 -0.9688 195.625 -0.5625 Q195.25 -0.1562 194.9922 -0.0078 Q194.7344 0.1406 194.5 0.1406 Q194.2969 0.1406 194.1641 0 Q194.0312 -0.1406 194.0312 -0.3438 Q194.0312 -0.625 194.2656 -1.4844 L194.7969 -3.3594 Q194.9844 -4.0156 194.9844 -4.0781 Q195.0156 -4.1875 195.0156 -4.2969 Q195.0156 -4.4375 194.9375 -4.5312 Q194.875 -4.6094 194.7812 -4.6094 Q194.5469 -4.6094 194.2656 -4.3594 Q193.4531 -3.6094 192.75 -2.2656 Q192.2969 -1.3906 191.8906 0 L191 0 L192 -3.5469 Q192.1719 -4.125 192.1719 -4.3125 Q192.1719 -4.4688 192.1016 -4.5469 Q192.0312 -4.625 191.9375 -4.625 Q191.75 -4.625 191.5312 -4.4844 Q191.1875 -4.25 190.6328 -3.5 Q190.0781 -2.75 189.7656 -2.0625 Q189.625 -1.75 189.0781 0 L188.2031 0 L189.2969 -3.7969 L189.4375 -4.2969 Q189.4688 -4.4062 189.4688 -4.4531 Q189.4688 -4.5781 189.3516 -4.6797 Q189.2344 -4.7812 189.0625 -4.7812 Q188.9844 -4.7812 188.6406 -4.7188 L188.5781 -4.9375 L190.6094 -5.2969 ZM202.625 -5.2969 L201.4844 -1.3281 L201.3594 -0.7969 Q201.3438 -0.7188 201.3438 -0.6719 Q201.3438 -0.5781 201.4062 -0.5 Q201.4531 -0.4531 201.5156 -0.4531 Q201.5938 -0.4531 201.7188 -0.5469 Q201.9531 -0.7188 202.3281 -1.25 L202.5312 -1.1094 Q202.125 -0.5 201.6953 -0.1797 Q201.2656 0.1406 200.9062 0.1406 Q200.6562 0.1406 200.5312 0.0156 Q200.4062 -0.1094 200.4062 -0.3594 Q200.4062 -0.6406 200.5312 -1.1094 L200.6562 -1.5469 Q199.8906 -0.5469 199.2344 -0.1406 Q198.7812 0.1406 198.3281 0.1406 Q197.9062 0.1406 197.5938 -0.2109 Q197.2812 -0.5625 197.2812 -1.1875 Q197.2812 -2.125 197.8438 -3.1562 Q198.4062 -4.1875 199.2656 -4.8125 Q199.9375 -5.2969 200.5312 -5.2969 Q200.8906 -5.2969 201.125 -5.1094 Q201.3594 -4.9219 201.4844 -4.5 L201.7031 -5.1562 L202.625 -5.2969 ZM200.5469 -5 Q200.1719 -5 199.75 -4.6406 Q199.1562 -4.1562 198.6875 -3.1719 Q198.2188 -2.1875 198.2188 -1.4062 Q198.2188 -1 198.4219 -0.7734 Q198.625 -0.5469 198.875 -0.5469 Q199.5156 -0.5469 200.2656 -1.4844 Q201.2656 -2.7344 201.2656 -4.0625 Q201.2656 -4.5469 201.0703 -4.7734 Q200.875 -5 200.5469 -5 ZM206.5625 -8.3281 L204.5625 -1.3594 Q204.4219 -0.8438 204.4219 -0.7188 Q204.4219 -0.6406 204.4766 -0.5781 Q204.5312 -0.5156 204.6094 -0.5156 Q204.7188 -0.5156 204.8594 -0.6094 Q205.1562 -0.8594 205.4844 -1.3594 L205.6719 -1.1719 Q205.1094 -0.3906 204.6406 -0.0781 Q204.2969 0.1406 203.9844 0.1406 Q203.7656 0.1406 203.6172 -0.0156 Q203.4688 -0.1719 203.4688 -0.3594 Q203.4688 -0.5781 203.6562 -1.2344 L205.2344 -6.7344 Q205.4375 -7.4062 205.4375 -7.5 Q205.4375 -7.6406 205.3203 -7.7344 Q205.2031 -7.8281 204.9688 -7.8281 Q204.8438 -7.8281 204.5625 -7.7812 L204.5625 -8 L206.5625 -8.3281 ZM208.25 2.4688 L208.0625 2.5625 Q207.3594 1.2344 207.0625 0.2188 Q206.8281 -0.5781 206.8281 -1.3906 Q206.8281 -3.2812 207.6875 -4.7656 Q208.7656 -6.5938 211.1719 -8.3281 L211.3125 -8.125 Q210.2188 -7.3281 209.5469 -6.3281 Q208.6875 -5.0938 208.1406 -3.3359 Q207.5938 -1.5781 207.5938 -0.125 Q207.5938 0.9688 208.25 2.4688 ZM212.6562 -5.2969 L212.25 -3.9531 Q212.8906 -4.7031 213.3906 -5 Q213.8906 -5.2969 214.4062 -5.2969 Q214.9375 -5.2969 215.3047 -4.8906 Q215.6719 -4.4844 215.6719 -3.8125 Q215.6719 -2.5312 214.625 -1.1953 Q213.5781 0.1406 212.1875 0.1406 Q211.8906 0.1406 211.6641 0.0781 Q211.4375 0.0156 211.1562 -0.1562 L210.7344 1.3594 Q210.5938 1.8125 210.5938 1.9375 Q210.5938 2.0625 210.6641 2.1562 Q210.7344 2.25 210.8828 2.2969 Q211.0312 2.3438 211.4844 2.3438 L211.4375 2.5625 L208.6719 2.5625 L208.7344 2.3438 Q209.2812 2.3281 209.4688 2.1641 Q209.6562 2 209.875 1.25 L211.3594 -3.875 Q211.4844 -4.3594 211.4844 -4.4844 Q211.4844 -4.6406 211.3984 -4.7266 Q211.3125 -4.8125 211.125 -4.8125 Q210.9531 -4.8125 210.6406 -4.7812 L210.6406 -5 L212.6562 -5.2969 ZM211.2969 -0.6094 Q211.6562 -0.1875 212.2656 -0.1875 Q212.5781 -0.1875 212.8906 -0.3516 Q213.2031 -0.5156 213.5078 -0.8516 Q213.8125 -1.1875 214.0547 -1.625 Q214.2969 -2.0625 214.4844 -2.6562 Q214.6719 -3.25 214.6719 -3.8281 Q214.6719 -4.2969 214.4609 -4.5469 Q214.25 -4.7969 213.9531 -4.7969 Q213.3281 -4.7969 212.7109 -4.0703 Q212.0938 -3.3438 211.7969 -2.375 L211.2969 -0.6094 ZM221.5469 -3.4688 Q221.5469 -2.5938 221.0859 -1.7344 Q220.625 -0.875 219.7891 -0.3672 Q218.9531 0.1406 218.1719 0.1406 Q217.3594 0.1406 216.8594 -0.375 Q216.3594 -0.8906 216.3594 -1.7031 Q216.3594 -2.5625 216.8516 -3.4297 Q217.3438 -4.2969 218.1719 -4.7969 Q219 -5.2969 219.7812 -5.2969 Q220.5469 -5.2969 221.0469 -4.7891 Q221.5469 -4.2812 221.5469 -3.4688 ZM220.5781 -3.875 Q220.5781 -4.4219 220.3125 -4.7109 Q220.0469 -5 219.625 -5 Q218.7656 -5 218.0391 -3.7656 Q217.3125 -2.5312 217.3125 -1.3125 Q217.3125 -0.75 217.5938 -0.4531 Q217.875 -0.1562 218.2969 -0.1562 Q219.125 -0.1562 219.8516 -1.3828 Q220.5781 -2.6094 220.5781 -3.875 ZM224.6875 -7.625 Q224.9375 -7.625 225.1016 -7.4609 Q225.2656 -7.2969 225.2656 -7.0469 Q225.2656 -6.7969 225.0938 -6.625 Q224.9219 -6.4531 224.6875 -6.4531 Q224.4375 -6.4531 224.2656 -6.625 Q224.0938 -6.7969 224.0938 -7.0469 Q224.0938 -7.2969 224.2656 -7.4609 Q224.4375 -7.625 224.6875 -7.625 ZM224.7656 -5.2969 L223.5938 -1.2031 Q223.4844 -0.7812 223.4844 -0.7031 Q223.4844 -0.6094 223.5391 -0.5469 Q223.5938 -0.4844 223.6719 -0.4844 Q223.7656 -0.4844 223.875 -0.5781 Q224.2188 -0.8438 224.5625 -1.3281 L224.7656 -1.2031 Q224.3594 -0.5938 223.8281 -0.1719 Q223.4219 0.1406 223.0625 0.1406 Q222.8281 0.1406 222.6719 0 Q222.5156 -0.1406 222.5156 -0.3594 Q222.5156 -0.5781 222.6562 -1.0781 L223.4219 -3.7031 Q223.6094 -4.3594 223.6094 -4.5156 Q223.6094 -4.6406 223.5234 -4.7266 Q223.4375 -4.8125 223.2656 -4.8125 Q223.1406 -4.8125 222.7344 -4.75 L222.7344 -4.9688 L224.7656 -5.2969 ZM227.6562 -5.2969 L226.875 -2.6406 Q227.9688 -4.2656 228.5469 -4.7812 Q229.125 -5.2969 229.6719 -5.2969 Q229.9688 -5.2969 230.1562 -5.1094 Q230.3438 -4.9219 230.3438 -4.6094 Q230.3438 -4.25 230.1719 -3.6719 L229.4531 -1.2031 Q229.3438 -0.7812 229.3438 -0.6875 Q229.3438 -0.5938 229.3906 -0.5391 Q229.4375 -0.4844 229.4844 -0.4844 Q229.5469 -0.4844 229.6562 -0.5625 Q229.9688 -0.8125 230.3281 -1.3125 L230.5156 -1.2031 Q229.9688 -0.4219 229.4844 -0.0938 Q229.1406 0.1406 228.875 0.1406 Q228.6562 0.1406 228.5312 0.0078 Q228.4062 -0.125 228.4062 -0.3438 Q228.4062 -0.625 228.5938 -1.3125 L229.2812 -3.6719 Q229.4062 -4.1094 229.4062 -4.3594 Q229.4062 -4.4688 229.3281 -4.5469 Q229.25 -4.625 229.1406 -4.625 Q228.9844 -4.625 228.75 -4.4844 Q228.3125 -4.2188 227.8438 -3.6094 Q227.375 -3 226.8594 -2.0625 Q226.5781 -1.5625 226.4062 -0.9688 L226.1094 0 L225.2344 0 L226.2969 -3.6719 Q226.4844 -4.3281 226.4844 -4.4688 Q226.4844 -4.5938 226.3828 -4.6875 Q226.2812 -4.7812 226.125 -4.7812 Q226.0625 -4.7812 225.875 -4.7656 L225.6562 -4.7344 L225.625 -4.9375 L227.6562 -5.2969 ZM234.125 -6.75 L233.6562 -5.1562 L234.5781 -5.1562 L234.4844 -4.7969 L233.5625 -4.7969 L232.5625 -1.3438 Q232.3906 -0.7812 232.3906 -0.6094 Q232.3906 -0.5156 232.4375 -0.4609 Q232.4844 -0.4062 232.5469 -0.4062 Q232.7031 -0.4062 232.9375 -0.6094 Q233.0781 -0.7344 233.5625 -1.3438 L233.7656 -1.1875 Q233.2188 -0.4062 232.7344 -0.0781 Q232.4062 0.1406 232.0781 0.1406 Q231.8281 0.1406 231.6641 -0.0234 Q231.5 -0.1875 231.5 -0.4375 Q231.5 -0.75 231.6875 -1.4062 L232.6562 -4.7969 L231.7812 -4.7969 L231.8281 -5.0156 Q232.4844 -5.2031 232.9062 -5.5469 Q233.3281 -5.8906 233.8594 -6.75 L234.125 -6.75 ZM235.75 -8.2188 L235.9531 -8.3281 Q236.6406 -7.0156 236.9375 -5.9844 Q237.1875 -5.1875 237.1875 -4.3906 Q237.1875 -2.4844 236.3125 -1 Q235.2344 0.8281 232.8281 2.5625 L232.6875 2.3906 Q233.7812 1.5781 234.4688 0.5938 Q235.3125 -0.6562 235.8594 -2.4141 Q236.4062 -4.1719 236.4062 -5.625 Q236.4062 -6.7188 235.75 -8.2188 ZM239.75 -8.2188 L239.9531 -8.3281 Q240.6406 -7.0156 240.9375 -5.9844 Q241.1875 -5.1875 241.1875 -4.3906 Q241.1875 -2.4844 240.3125 -1 Q239.2344 0.8281 236.8281 2.5625 L236.6875 2.3906 Q237.7812 1.5781 238.4688 0.5938 Q239.3125 -0.6562 239.8594 -2.4141 Q240.4062 -4.1719 240.4062 -5.625 Q240.4062 -6.7188 239.75 -8.2188 Z" stroke="none"/></g></g></svg>